<?xml version="1.0" encoding="UTF-8" standalone="no"?>
<!-- Created with Inkscape (http://www.inkscape.org/) -->

<svg
   width="241.26837mm"
   height="67.139519mm"
   viewBox="0 0 241.26837 67.139519"
   version="1.1"
   id="svg5"
   inkscape:version="1.1 (c68e22c387, 2021-05-23)"
   sodipodi:docname="共泳会logo.svg"
   xmlns:inkscape="http://www.inkscape.org/namespaces/inkscape"
   xmlns:sodipodi="http://sodipodi.sourceforge.net/DTD/sodipodi-0.dtd"
   xmlns="http://www.w3.org/2000/svg"
   xmlns:svg="http://www.w3.org/2000/svg">
  <sodipodi:namedview
     id="namedview7"
     pagecolor="#ffffff"
     bordercolor="#666666"
     borderopacity="1.0"
     inkscape:pageshadow="2"
     inkscape:pageopacity="0.0"
     inkscape:pagecheckerboard="0"
     inkscape:document-units="mm"
     showgrid="false"
     inkscape:zoom="0.45254834"
     inkscape:cx="583.3631"
     inkscape:cy="-206.60776"
     inkscape:window-width="1366"
     inkscape:window-height="705"
     inkscape:window-x="-8"
     inkscape:window-y="-8"
     inkscape:window-maximized="1"
     inkscape:current-layer="layer1" />
  <defs
     id="defs2" />
  <g
     inkscape:label="レイヤー 1"
     inkscape:groupmode="layer"
     id="layer1"
     transform="translate(5540.6903,2747.3867)">
    <path
       style="fill:#000000;stroke-width:0.671958"
       d="m -5355.2478,-2681.1985 c 0,-0.6298 -0.6365,-1.0079 -1.6966,-1.0079 -1.2312,0 -1.8906,-0.5068 -2.4042,-1.8479 -0.8731,-2.2799 0.022,-3.9285 2.012,-3.7037 0.8996,0.1016 1.4168,-0.2195 1.4168,-0.8796 0,-0.5718 -0.3024,-0.8528 -0.6719,-0.6244 -1.3635,0.8427 -0.7615,-0.096 2.6753,-4.1713 0.3765,-0.4464 0.6844,-1.4113 0.6844,-2.1443 0,-0.7329 0.3024,-1.5195 0.672,-1.7479 1.1043,-0.6824 0.7772,-3.0238 -0.4225,-3.0238 -0.6019,0 -2.8663,1.2095 -5.032,2.6879 -2.1658,1.4783 -4.2435,2.6878 -4.6173,2.6878 -0.7346,0 -0.8928,-2.833 -0.2847,-5.0979 0.3803,-1.4165 5.3881,-4.3095 7.4596,-4.3095 0.6044,0 2.4599,-0.7976 4.1232,-1.7724 2.6093,-1.5291 3.1245,-1.6354 3.7548,-0.7746 0.5376,0.7343 2.6822,1.0933 8.1221,1.3597 7.4797,0.3663 11.0873,1.3343 11.0873,2.975 0,0.4951 0.3024,0.9001 0.6719,0.9001 0.9773,0 0.8226,1.2893 -0.2879,2.3999 -1.0952,1.0951 -3.7438,1.2989 -3.7438,0.2879 0,-0.3695 -1.3355,-0.6719 -2.9678,-0.6719 -1.7755,0 -3.0814,-0.3375 -3.2505,-0.84 -0.2253,-0.6693 -0.4924,-0.667 -1.3148,0.012 -1.061,0.8755 -3.2182,0.4817 -3.2182,-0.5874 0,-0.3301 -0.9072,-0.6001 -2.0159,-0.6001 -2.3552,0 -2.6923,1.3873 -0.674,2.7739 0.7381,0.507 1.5248,1.8694 1.7483,3.0274 0.355,1.8398 0.1433,2.2609 -1.6779,3.3367 -2.1878,1.2923 -2.7937,2.9572 -1.0763,2.9572 0.5544,0 1.0079,-0.3376 1.0079,-0.7503 0,-0.4197 0.5927,-0.5953 1.3449,-0.3986 0.7396,0.1934 1.1959,0.1106 1.0138,-0.184 -0.1821,-0.2945 0.7947,-0.7468 2.1706,-1.0049 3.9497,-0.7409 4.9518,-1.5024 4.4754,-3.4007 -0.7157,-2.8516 2.3315,-2.1413 5.7481,1.34 2.9527,3.0085 4.5865,6.229 5.2144,10.2782 0.2881,1.8583 0.1351,2.1838 -1.0265,2.1838 -1.2669,0 -6.1735,-4.9026 -6.1735,-6.1685 0,-1.0229 -4.7262,-0.6022 -5.1326,0.4569 -0.2279,0.5938 -1.2364,1.0079 -2.4547,1.0079 -3.7551,0 -10.136,2.1907 -12.1191,4.1607 -2.1173,2.1032 -3.1401,2.3896 -3.1401,0.879 z m -64.1872,-3.8063 c -0.2582,-1.8771 -0.3604,-11.0705 -0.2271,-20.4297 0.1721,-12.0877 0.021,-17.2384 -0.5202,-17.7819 -0.9271,-0.9305 -7.0229,-1.1885 -10.5311,-0.4458 l -2.5582,0.5417 0.2063,-3.1758 c 0.1802,-2.7733 0.4765,-3.3262 2.3376,-4.3623 2.5741,-1.4332 13.7385,-2.8089 15.9552,-1.9661 1.8179,0.6912 2.4083,1.9486 2.4083,5.1289 0,2.6172 0.1265,2.62 7.3287,0.1635 4.5935,-1.5668 4.9066,-1.553 4.6453,0.2053 -0.322,2.1658 -3.1627,3.908 -7.8135,4.7919 -2.2883,0.4349 -4.1605,1.0359 -4.1605,1.3357 0,1.0079 2.7093,5.8671 3.2714,5.8671 0.3059,0 1.1282,1.2684 1.8273,2.8188 1.7235,3.822 6.5494,8.3916 11.0283,10.4425 4.3534,1.9935 12.1616,2.8608 13.7662,1.5291 1.4594,-1.2112 1.2954,0 -0.5733,4.2218 -1.6656,3.7662 -4.4392,6.5221 -6.564,6.5221 -0.6893,0 -1.2533,0.3024 -1.2533,0.672 0,0.3726 -1.7791,0.672 -3.9933,0.672 -5.7585,0 -8.2402,-1.6617 -11.1697,-7.4789 -1.2786,-2.539 -2.5681,-4.6164 -2.8656,-4.6164 -0.2974,0 -1.065,-1.6631 -1.7058,-3.6957 -0.6407,-2.0327 -1.4223,-3.6958 -1.7368,-3.6958 -0.3146,0 -0.8882,-0.9072 -1.2747,-2.0159 -0.3865,-1.1087 -1.0208,-2.0159 -1.4096,-2.0159 -0.9298,0 -0.9084,5.8762 0.068,18.6517 0.4309,5.6388 0.6596,10.3578 0.5083,10.4869 -0.1513,0.129 -1.2312,0.4163 -2.3998,0.6384 -2.1163,0.4023 -2.1266,0.3903 -2.5942,-3.0092 z m -68.6319,-2.2118 c -4.4001,-2.1619 -5.7106,-4.2975 -5.4703,-8.9143 0.2434,-4.677 1.5724,-5.2034 3.4477,-1.3656 0.6764,1.3842 2.5394,3.4572 4.1401,4.6067 2.7837,1.9992 2.8796,2.1818 2.2062,4.2028 -0.9823,2.9484 -1.1793,3.0154 -4.3237,1.4704 z m -30.4211,-2.1737 c -0.5294,-0.5968 -1.1504,-2.1728 -1.38,-3.5022 -0.3254,-1.8839 -0.088,-2.8618 1.0781,-4.433 0.8226,-1.1087 1.7031,-2.8474 1.9568,-3.8637 0.3586,-1.4372 0.8556,-1.8456 2.2362,-1.8376 2.4106,0.014 3.1328,0.5868 4.3126,3.4208 1.0137,2.435 0.8622,5.6076 -0.3405,7.1308 -0.5068,0.6419 -6.4596,4.3053 -6.8175,4.1956 -0.046,-0.014 -0.5164,-0.5139 -1.0457,-1.1107 z m 62.8544,0.073 c -0.5423,-1.4133 -0.436,-7.0262 0.1618,-8.5401 0.2614,-0.662 1.9703,-1.8905 3.7976,-2.73 3.0127,-1.3841 3.501,-1.4373 5.2386,-0.5705 1.054,0.5258 2.0776,1.3763 2.2747,1.89 0.5382,1.4025 3.235,1.1287 6.8309,-0.6934 2.4144,-1.2235 3.5186,-2.3079 4.4474,-4.3678 0.6797,-1.5071 1.4555,-2.7402 1.7241,-2.7402 0.2686,0 0.8641,-0.9071 1.3234,-2.0158 0.4592,-1.1088 1.1007,-2.0159 1.4254,-2.0159 0.9808,0 0.662,-2.0306 -0.3816,-2.4311 -0.5346,-0.2051 -2.6222,0.1068 -4.6391,0.6931 -4.6915,1.3638 -5.8157,1.3425 -5.7972,-0.1099 0.027,-2.1484 2.2886,-4.0241 6.6215,-5.4924 5.5614,-1.8847 9.8361,-1.443 10.4698,1.0818 0.5421,2.1597 -0.087,4.0777 -1.605,4.8899 -1.3917,0.7448 -5.9111,8.1476 -8.0976,13.2637 -1.4511,3.3956 -3.6566,5.5758 -5.6404,5.5758 -0.5345,0 -1.7351,-0.9071 -2.6681,-2.0159 -0.9329,-1.1087 -1.8669,-2.0158 -2.0756,-2.0158 -0.2086,0 -0.3793,1.0129 -0.3793,2.251 0,2.1322 -0.2307,2.3491 -4.3678,4.1074 -2.4022,1.0209 -4.3677,2.1246 -4.3677,2.4526 0,1.0706 -3.8671,0.6506 -4.2958,-0.4665 z m -84.6667,-8.0635 c -0.8083,-2.1064 -0.3751,-4.3125 1.44,-7.3343 1.6218,-2.7 2.3,-3.2015 5.5437,-4.099 4.6353,-1.2826 15.3767,-5.6484 15.8731,-6.4515 0.2043,-0.3306 0.1654,-2.099 -0.086,-3.9299 l -0.4578,-3.3288 h -3.2731 c -2.5483,0 -3.4271,-0.2878 -3.9687,-1.2997 -1.8614,-3.4781 0.08,-9.8663 3.5873,-11.8035 1.4763,-0.8154 2.4338,-1.8487 2.4349,-2.6278 0,-1.1987 3.6591,-5.0997 4.7812,-5.0997 0.2781,0 0.7043,0.6804 0.9469,1.5119 1.3799,4.7282 1.8437,5.2082 5.0211,5.1974 3.7594,-0.013 4.416,-0.432 5.0174,-3.2033 0.3512,-1.6188 1.0442,-2.4431 2.6042,-3.098 1.1691,-0.4908 2.3221,-0.7843 2.5622,-0.6522 0.24,0.132 0.7913,1.7193 1.225,3.5272 l 0.7885,3.2871 4.0977,1.1497 c 5.1726,1.4514 6.3394,2.5045 5.3007,4.7842 -0.4186,0.9187 -0.7657,2.4877 -0.7714,3.4866 -0.019,3.3623 -0.6289,3.6065 -5.5785,2.234 l -4.509,-1.2503 -0.392,1.7602 c -0.2156,0.9682 -0.6633,2.8186 -0.9949,4.1121 -1.1577,4.5153 -1.3421,4.3833 7.285,5.2129 5.6316,0.5416 10.0148,1.447 15.287,3.1578 4.0654,1.3192 9.2814,2.5894 11.5913,2.8227 3.979,0.4019 5.039,0.9758 3.5278,1.9098 -0.3696,0.2284 -0.672,1.0022 -0.672,1.7195 0,0.8563 -0.4616,1.3043 -1.3439,1.3043 -1.5711,0 -1.8006,1.2108 -0.336,1.7729 0.5544,0.2127 1.0079,0.6954 1.0079,1.0727 0,1.5275 -14.0121,-2.3038 -17.4709,-4.7771 -4.7355,-3.3862 -14.4867,-4.9034 -26.3476,-4.0996 -4.3764,0.2966 -7.681,0.2597 -7.8102,-0.087 -0.3738,-1.0036 -1.2801,-0.6742 -1.6094,0.585 -0.3379,1.2923 -8.4152,5.5333 -10.5384,5.5333 -0.722,0 -1.4911,0.5619 -1.7091,1.2486 -0.218,0.6868 -1.6747,1.8099 -3.2371,2.4959 -1.5624,0.6859 -3.5067,1.9383 -4.3206,2.7831 -1.7134,1.7783 -3.9064,2.009 -4.4959,0.473 z m 31.8461,-20.4398 c 0,-0.3696 1.0405,-0.6719 2.3122,-0.6719 2.7519,0 2.7787,-0.036 3.3857,-4.5357 l 0.4758,-3.5278 h -2.3921 c -1.3156,0 -3.4276,0.4938 -4.6933,1.0974 -1.8215,0.8686 -2.3851,1.604 -2.7033,3.5277 -0.7242,4.3788 -0.5893,4.7823 1.5991,4.7823 1.1088,0 2.0159,-0.3024 2.0159,-0.672 z m 132.5759,20.7322 c -0.8138,-0.4125 -1.5869,-1.2395 -1.718,-1.8377 -0.2454,-1.1196 3.6936,-5.1922 5.6192,-5.8098 0.5927,-0.1901 2.6984,-3.0607 4.6794,-6.3792 1.9811,-3.3184 3.8243,-6.0335 4.0961,-6.0335 0.2718,0 1.7658,-2.4443 3.3201,-5.4317 1.5542,-2.9874 3.157,-5.7845 3.5618,-6.2156 1.185,-1.2623 2.5455,-5.2275 3.0357,-8.8474 0.2502,-1.8479 0.8638,-4.1158 1.3636,-5.0397 0.8974,-1.6589 3.8015,-4.7037 4.4864,-4.7037 1.0974,0 4.1937,4.137 5.1085,6.8257 0.5858,1.7215 1.6221,3.7408 2.3028,4.4875 2.1327,2.3391 2.7405,3.1933 3.9484,5.5488 1.6497,3.2168 4.0028,6.1514 9.0487,11.2846 6.8092,6.9271 17.5078,11.7327 27.0463,12.1489 2.5208,0.1099 -4.1164,8.7102 -7.7713,10.0697 -3.1171,1.1594 -4.3746,0.8476 -9.8753,-2.4488 -3.5147,-2.1063 -5.7799,-3.9957 -6.826,-5.6936 -0.8612,-1.3976 -1.7634,-2.5493 -2.005,-2.5592 -0.5902,-0.024 -7.2883,-10.505 -7.2883,-11.4042 0,-0.39 -0.2565,-0.7091 -0.57,-0.7091 -0.3135,0 -1.0765,-1.134 -1.6954,-2.5199 -2.3183,-5.1909 -3.9602,-7.2559 -6.6994,-8.4257 -2.4146,-1.0312 -2.7976,-1.0486 -3.3004,-0.1502 -0.3128,0.5591 -1.4287,1.4611 -2.4797,2.0046 -1.2206,0.6312 -2.9139,2.8156 -4.6876,6.0476 -1.5273,2.7827 -3.0026,5.0594 -3.2786,5.0594 -0.276,0 -1.0997,1.1117 -1.8305,2.4705 -0.7308,1.3587 -1.7371,2.8794 -2.2362,3.3793 -0.4991,0.4999 -2.2387,3.644 -3.8658,6.9869 -1.627,3.343 -3.4192,6.5391 -3.9826,7.1025 -1.312,1.312 -5.5911,1.764 -7.5069,0.793 z m 20.4065,-11.1008 c -0.5689,-0.5688 -0.4991,-4.9001 0.1032,-6.4048 0.2512,-0.6277 1.9495,-1.9343 3.774,-2.9037 l 3.3173,-1.7624 5.2441,1.5153 c 5.5433,1.6017 6.3429,2.4059 5.5466,5.5787 -0.4063,1.6188 -1.6342,2.4744 -1.6342,1.1386 0,-0.3291 -1.0584,-0.722 -2.3519,-0.873 -1.2935,-0.151 -2.3518,0.01 -2.3518,0.3504 0,0.3437 -1.0584,0.4532 -2.3519,0.2433 -1.4299,-0.232 -2.3519,-0.1066 -2.3519,0.3199 0,0.3859 -0.4535,0.5276 -1.0079,0.3149 -0.5938,-0.2279 -1.0079,-0.01 -1.0079,0.5343 0,0.5066 -0.9523,1.2531 -2.1162,1.6588 -2.5009,0.8718 -2.2548,0.8465 -2.8115,0.2897 z m -95.2604,-8.7914 c -0.5108,-1.3389 -0.4776,-2.5391 0.1206,-4.3568 0.6918,-2.1023 1.2074,-2.5805 3.181,-2.9508 4.5905,-0.8611 8.2021,2.6912 7.0838,6.9676 -0.3888,1.4869 -2.6507,2.1879 -7.0599,2.1879 -2.2398,0 -2.7228,-0.2685 -3.3255,-1.8479 z m 1.6578,-12.954 c -2.2665,-0.872 -2.4131,-4.7433 -0.2743,-7.2456 1.4104,-1.65 2.3582,-2.0572 5.4598,-2.3458 2.0643,-0.1921 4.0617,-0.1494 4.4388,0.095 0.9129,0.5911 1.7299,5.207 1.2109,6.8419 -0.5819,1.8336 -8.15,3.6878 -10.8352,2.6547 z m 23.0418,-5.8101 c -0.7344,-0.7344 -0.4986,-2.9467 0.4111,-3.8564 1.5818,-1.5818 3.689,-2.3793 7.4572,-2.8222 3.6244,-0.426 3.7716,-0.3804 4.4384,1.3735 0.966,2.5407 0.8886,2.9153 -0.8222,3.9837 -1.617,1.0097 -10.7458,2.0601 -11.4845,1.3214 z"
       id="path113" />
  </g>
</svg>
